<svg xmlns="http://www.w3.org/2000/svg" viewBox="0 0 551.53 556.07"><defs><style>.cls-1{fill:#6c2754;}.cls-11,.cls-12,.cls-2{fill:none;stroke-miterlimit:10;}.cls-2{stroke:#fff;}.cls-3{fill:#2778be;}.cls-4{fill:#79b2c5;}.cls-5{fill:#fff;}.cls-6{fill:#213491;}.cls-7{fill:#efded0;}.cls-8{fill:#231815;}.cls-9{fill:#692651;}.cls-10{fill:#292777;}.cls-11,.cls-12{stroke:#231815;}.cls-11{stroke-width:0.45px;}.cls-12{stroke-width:0.75px;}</style></defs><g id="レイヤー_2" data-name="レイヤー 2"><g id="レイヤー_1-2" data-name="レイヤー 1"><path class="cls-1" d="M117.15,225.05l84.6-59.67a.63.63,0,0,0-.22-1.13l-83.71-19.59a.62.62,0,0,0-.77.6l-.89,79.27a.63.63,0,0,0,1,.52"/><path class="cls-2" d="M117.15,225.05l84.6-59.67a.63.63,0,0,0-.22-1.13l-83.71-19.59a.62.62,0,0,0-.77.6l-.89,79.27A.63.63,0,0,0,117.15,225.05Z"/><path class="cls-3" d="M143.19,326.75,116.71,227.9a.88.88,0,0,0-1.63-.2L70.66,309.44a.9.9,0,0,0-.06.7l2.45,7.34a.87.87,0,0,0,.71.59l68.45,9.78a.88.88,0,0,0,1-1.1"/><path class="cls-2" d="M143.19,326.75,116.71,227.9a.88.88,0,0,0-1.63-.2L70.66,309.44a.9.9,0,0,0-.06.7l2.45,7.34a.87.87,0,0,0,.71.59l68.45,9.78A.88.88,0,0,0,143.19,326.75Z"/><path class="cls-4" d="M97.5,394.84l45.62-66.19a.46.46,0,0,0-.32-.71L73.94,318.1a.46.46,0,0,0-.51.59l23.26,76a.46.46,0,0,0,.81.13"/><path class="cls-2" d="M97.5,394.84l45.62-66.19a.46.46,0,0,0-.32-.71L73.94,318.1a.46.46,0,0,0-.51.59l23.26,76A.46.46,0,0,0,97.5,394.84Z"/><path class="cls-5" d="M175.29,431.45,143.74,328.68a.33.33,0,0,0-.58-.09l-46,66.72a.32.32,0,0,0,.13.47l77.53,36.06a.33.33,0,0,0,.45-.39"/><path class="cls-2" d="M175.29,431.45,143.74,328.68a.33.33,0,0,0-.58-.09l-46,66.72a.32.32,0,0,0,.13.47l77.53,36.06A.33.33,0,0,0,175.29,431.45Z"/><path class="cls-6" d="M122.5,433.93,97.18,396a.11.11,0,0,1,.14-.16L175.08,432a.11.11,0,0,1,0,.21L122.6,434a.1.1,0,0,1-.1,0"/><path class="cls-2" d="M122.5,433.93,97.18,396a.11.11,0,0,1,.14-.16L175.08,432a.11.11,0,0,1,0,.21L122.6,434A.1.1,0,0,1,122.5,433.93Z"/><path class="cls-6" d="M181.84,475.58l-6.31-43.27a.18.18,0,0,0-.19-.15L123.06,434a.17.17,0,0,0-.09.32l58.58,41.47a.19.19,0,0,0,.29-.17"/><path class="cls-2" d="M181.84,475.58l-6.31-43.27a.18.18,0,0,0-.19-.15L123.06,434a.17.17,0,0,0-.09.32l58.58,41.47A.19.19,0,0,0,181.84,475.58Z"/><path class="cls-1" d="M90.62,172l25.19,53.07a.18.18,0,0,0,.34-.07l.9-80.06a.18.18,0,0,0-.31-.13l-26.08,27a.17.17,0,0,0,0,.2"/><path class="cls-2" d="M90.62,172l25.19,53.07a.18.18,0,0,0,.34-.07l.9-80.06a.18.18,0,0,0-.31-.13l-26.08,27A.17.17,0,0,0,90.62,172Z"/><path class="cls-3" d="M62.3,247.06l8,61.53a.39.39,0,0,0,.73.14l44.58-82a.39.39,0,0,0-.48-.55L62.54,246.65a.4.4,0,0,0-.24.41"/><path class="cls-2" d="M62.3,247.06l8,61.53a.39.39,0,0,0,.73.14l44.58-82a.39.39,0,0,0-.48-.55L62.54,246.65A.4.4,0,0,0,62.3,247.06Z"/><path class="cls-4" d="M90.41,172.29l-28,74.08a.19.19,0,0,0,.25.24L116,225.83a.18.18,0,0,0,.1-.25l-25.29-53.3a.19.19,0,0,0-.35,0"/><path class="cls-2" d="M90.41,172.29l-28,74.08a.19.19,0,0,0,.25.24L116,225.83a.18.18,0,0,0,.1-.25l-25.29-53.3A.19.19,0,0,0,90.41,172.29Z"/><path class="cls-1" d="M231.71,484.73l-55.86-52.25a.17.17,0,0,0-.28.15l6.27,43a.54.54,0,0,0,.44.46l49.28,9a.17.17,0,0,0,.15-.29"/><path class="cls-2" d="M231.71,484.73l-55.86-52.25a.17.17,0,0,0-.28.15l6.27,43a.54.54,0,0,0,.44.46l49.28,9A.17.17,0,0,0,231.71,484.73Z"/><path class="cls-3" d="M284.87,436.67,176.74,432.2a.46.46,0,0,0-.33.8l55.41,51.83a.46.46,0,0,0,.62,0l52.72-47.37a.46.46,0,0,0-.29-.8"/><path class="cls-2" d="M284.87,436.67,176.74,432.2a.46.46,0,0,0-.33.8l55.41,51.83a.46.46,0,0,0,.62,0l52.72-47.37A.46.46,0,0,0,284.87,436.67Z"/><path class="cls-6" d="M352.19,485.68,286.12,436.8a.18.18,0,0,0-.22,0l-53.45,48a.17.17,0,0,0,.12.3l119.5.91a.19.19,0,0,0,.12-.35"/><path class="cls-2" d="M352.19,485.68,286.12,436.8a.18.18,0,0,0-.22,0l-53.45,48a.17.17,0,0,0,.12.3l119.5.91A.19.19,0,0,0,352.19,485.68Z"/><path class="cls-4" d="M389.13,432.23l-100.52,4.38a.92.92,0,0,0-.51,1.66l63.81,47.2a.93.93,0,0,0,1.31-.2l36.71-51.58a.93.93,0,0,0-.8-1.46"/><path class="cls-2" d="M389.13,432.23l-100.52,4.38a.92.92,0,0,0-.51,1.66l63.81,47.2a.93.93,0,0,0,1.31-.2l36.71-51.58A.93.93,0,0,0,389.13,432.23Z"/><path class="cls-7" d="M424.6,431.24l-33.54.91a.05.05,0,0,0-.05,0l-38.07,53.47a.07.07,0,0,0,.1.1l71.6-54.38a.07.07,0,0,0,0-.13"/><path class="cls-2" d="M424.6,431.24l-33.54.91a.05.05,0,0,0-.05,0l-38.07,53.47a.07.07,0,0,0,.1.1l71.6-54.38A.07.07,0,0,0,424.6,431.24Z"/><path class="cls-6" d="M457,386.09l-65.5,45.77a.15.15,0,0,0,.09.28l33.2-.9a.14.14,0,0,0,.12-.06l32.3-44.87a.15.15,0,0,0-.21-.22"/><path class="cls-2" d="M457,386.09l-65.5,45.77a.15.15,0,0,0,.09.28l33.2-.9a.14.14,0,0,0,.12-.06l32.3-44.87A.15.15,0,0,0,457,386.09Z"/><path class="cls-6" d="M422.08,335.35,391,432.15l66.17-46.23a.6.6,0,0,0,.15-.83Z"/><path class="cls-2" d="M422.08,335.35,391,432.15l66.17-46.23a.6.6,0,0,0,.15-.83Z"/><path class="cls-3" d="M489.47,303l-66.88,32.1a.47.47,0,0,0-.18.71l34.77,49.05a.48.48,0,0,0,.84-.1l32.1-81.15a.48.48,0,0,0-.65-.61"/><path class="cls-2" d="M489.47,303l-66.88,32.1a.47.47,0,0,0-.18.71l34.77,49.05a.48.48,0,0,0,.84-.1l32.1-81.15A.48.48,0,0,0,489.47,303Z"/><polygon class="cls-3" points="286 436.72 354.5 366.4 391.03 432.15 286 436.72"/><polygon class="cls-2" points="286 436.72 354.5 366.4 391.03 432.15 286 436.72"/><polygon class="cls-4" points="175.5 432.15 227.56 370.05 286 436.72 175.5 432.15"/><polygon class="cls-2" points="175.5 432.15 227.56 370.05 286 436.72 175.5 432.15"/><polygon class="cls-6" points="143.54 328.04 227.56 370.05 175.5 432.15 143.54 328.04"/><polygon class="cls-2" points="143.54 328.04 227.56 370.05 175.5 432.15 143.54 328.04"/><polygon class="cls-4" points="192.85 256.81 143.54 328.04 227.56 370.05 192.85 256.81"/><polygon class="cls-2" points="192.85 256.81 143.54 328.04 227.56 370.05 192.85 256.81"/><polygon class="cls-4" points="290.57 191.05 192.85 256.81 287.83 295.17 290.57 191.05"/><polygon class="cls-2" points="290.57 191.05 192.85 256.81 287.83 295.17 290.57 191.05"/><polygon class="cls-5" points="391.94 258.64 290.57 191.05 287.83 295.17 391.94 258.64"/><polygon class="cls-2" points="391.94 258.64 290.57 191.05 287.83 295.17 391.94 258.64"/><polygon class="cls-1" points="354.5 366.4 287.83 295.17 391.94 258.64 354.5 366.4"/><polygon class="cls-2" points="354.5 366.4 287.83 295.17 391.94 258.64 354.5 366.4"/><polygon class="cls-3" points="192.85 256.81 287.83 295.17 227.56 370.05 192.85 256.81"/><polygon class="cls-2" points="192.85 256.81 287.83 295.17 227.56 370.05 192.85 256.81"/><polygon class="cls-7" points="116.14 225.76 192.85 256.81 143.54 328.04 116.14 225.76"/><polygon class="cls-2" points="116.14 225.76 192.85 256.81 143.54 328.04 116.14 225.76"/><polygon class="cls-5" points="202.9 164.57 192.85 256.81 116.14 225.76 202.9 164.57"/><polygon class="cls-2" points="202.9 164.57 192.85 256.81 116.14 225.76 202.9 164.57"/><polygon class="cls-3" points="290.57 191.05 192.85 256.81 202.9 164.57 290.57 191.05"/><polygon class="cls-2" points="290.57 191.05 192.85 256.81 202.9 164.57 290.57 191.05"/><polygon class="cls-6" points="289.66 104.3 202.9 164.57 290.57 191.05 289.66 104.3"/><polygon class="cls-2" points="289.66 104.3 202.9 164.57 290.57 191.05 289.66 104.3"/><path class="cls-7" d="M202.9,84.5v79.62a.23.23,0,0,0,.37.19l86-59.71a.23.23,0,0,0-.08-.42L203.19,84.27a.24.24,0,0,0-.29.23"/><path class="cls-2" d="M202.9,84.5v79.62a.23.23,0,0,0,.37.19l86-59.71a.23.23,0,0,0-.08-.42L203.19,84.27A.24.24,0,0,0,202.9,84.5Z"/><polygon class="cls-6" points="461.35 228.5 377.33 169.14 391.94 258.63 461.35 228.5"/><polygon class="cls-2" points="461.35 228.5 377.33 169.14 391.94 258.63 461.35 228.5"/><path class="cls-6" d="M370.53,94.3l-80.35,9.93a.13.13,0,0,1-.09-.24L333.42,73.3a.14.14,0,0,1,.15,0l37,20.76a.13.13,0,0,1-.05.25"/><path class="cls-2" d="M370.53,94.3l-80.35,9.93a.13.13,0,0,1-.09-.24L333.42,73.3a.14.14,0,0,1,.15,0l37,20.76A.13.13,0,0,1,370.53,94.3Z"/><path class="cls-4" d="M202.61,84.4a.19.19,0,0,1,.29.15v79.86a.13.13,0,0,1-.16.12l-85.53-20c0-.11,0-.12,0-.22Z"/><path class="cls-2" d="M202.61,84.4a.19.19,0,0,1,.29.15v79.86a.13.13,0,0,1-.16.12l-85.53-20c0-.11,0-.12,0-.22Z"/><path class="cls-4" d="M232.4,70.51l100.51,2.72a.19.19,0,0,1,.11.35l-43.26,30.64a.18.18,0,0,1-.21,0L232.36,70.65a.08.08,0,0,1,0-.14"/><path class="cls-2" d="M232.4,70.51l100.51,2.72a.19.19,0,0,1,.11.35l-43.26,30.64a.18.18,0,0,1-.21,0L232.36,70.65A.08.08,0,0,1,232.4,70.51Z"/><path class="cls-5" d="M371,94.47l6.34,74.2a.21.21,0,0,1-.34.19l-86.87-64.25a.21.21,0,0,1,.11-.38l80.53-10a.2.2,0,0,1,.23.19"/><path class="cls-2" d="M371,94.47l6.34,74.2a.21.21,0,0,1-.34.19l-86.87-64.25a.21.21,0,0,1,.11-.38l80.53-10A.2.2,0,0,1,371,94.47Z"/><polygon class="cls-4" points="391.94 258.64 377.33 169.14 290.57 191.05 391.94 258.64"/><polygon class="cls-2" points="391.94 258.64 377.33 169.14 290.57 191.05 391.94 258.64"/><path class="cls-6" d="M287.61,295.44,228,369.53a.31.31,0,0,0,.25.5l125.58-3.62a.3.3,0,0,0,.22-.51l-66-70.48a.31.31,0,0,0-.46,0"/><path class="cls-2" d="M287.61,295.44,228,369.53a.31.31,0,0,0,.25.5l125.58-3.62a.3.3,0,0,0,.22-.51l-66-70.48A.31.31,0,0,0,287.61,295.44Z"/><path class="cls-1" d="M472.22,176.44l-94.63-7.28a.07.07,0,0,0,0,.13l83.72,59.15a.08.08,0,0,0,.11-.05l10.92-51.87a.07.07,0,0,0-.07-.08"/><path class="cls-2" d="M472.22,176.44l-94.63-7.28a.07.07,0,0,0,0,.13l83.72,59.15a.08.08,0,0,0,.11-.05l10.92-51.87A.07.07,0,0,0,472.22,176.44Z"/><path class="cls-3" d="M371,94.64l6.34,74.26a.19.19,0,0,0,.25.16l68.82-24.45a.19.19,0,0,0,0-.34l-75.16-49.8a.18.18,0,0,0-.29.17"/><path class="cls-2" d="M371,94.64l6.34,74.26a.19.19,0,0,0,.25.16l68.82-24.45a.19.19,0,0,0,0-.34l-75.16-49.8A.18.18,0,0,0,371,94.64Z"/><path class="cls-3" d="M461.35,228.52l29,73.37a.07.07,0,0,0,.14,0l-18.12-125a.07.07,0,0,0-.14,0l-10.87,51.64v0"/><path class="cls-2" d="M461.35,228.52l29,73.37a.07.07,0,0,0,.14,0l-18.12-125a.07.07,0,0,0-.14,0l-10.87,51.64Z"/><path class="cls-5" d="M392,258.68l98.44,43.75a0,0,0,0,0,.06-.06l-29.17-73.83a0,0,0,0,0-.06,0L392,258.59a.06.06,0,0,0,0,.09"/><path class="cls-2" d="M392,258.68l98.44,43.75a0,0,0,0,0,.06-.06l-29.17-73.83a0,0,0,0,0-.06,0L392,258.59A.06.06,0,0,0,392,258.68Z"/><path class="cls-4" d="M355,366.14l135-63.43a.25.25,0,0,0,0-.46l-97.87-43.5a.25.25,0,0,0-.34.15L354.69,365.83a.25.25,0,0,0,.35.31"/><path class="cls-2" d="M355,366.14l135-63.43a.25.25,0,0,0,0-.46l-97.87-43.5a.25.25,0,0,0-.34.15L354.69,365.83A.25.25,0,0,0,355,366.14Z"/><path class="cls-3" d="M289,103.94l-56.87-33.4a.12.12,0,0,0-.1,0L203.18,84.07a.11.11,0,0,0,0,.21L289,104.14a.11.11,0,0,0,.08-.2"/><path class="cls-2" d="M289,103.94l-56.87-33.4a.12.12,0,0,0-.1,0L203.18,84.07a.11.11,0,0,0,0,.21L289,104.14A.11.11,0,0,0,289,103.94Z"/><path class="cls-5" d="M354.89,366.22l66.35-30.49a.41.41,0,0,1,.56.49l-30.49,95a.41.41,0,0,1-.74.08l-35.86-64.56a.4.4,0,0,1,.18-.56"/><path class="cls-2" d="M354.89,366.22l66.35-30.49a.41.41,0,0,1,.56.49l-30.49,95a.41.41,0,0,1-.74.08l-35.86-64.56A.4.4,0,0,1,354.89,366.22Z"/><path class="cls-7" d="M446.73,144.48l-69.4,24.66,94.27,7.25a.31.31,0,0,0,.26-.5Z"/><path class="cls-2" d="M446.73,144.48l-69.4,24.66,94.27,7.25a.31.31,0,0,0,.26-.5Z"/><path class="cls-7" d="M291.19,190.9l85.11-21.5a.51.51,0,0,0,.17-.9l-86-63.6a.5.5,0,0,0-.8.41l.89,85.1a.51.51,0,0,0,.63.49"/><path class="cls-2" d="M291.19,190.9l85.11-21.5a.51.51,0,0,0,.17-.9l-86-63.6a.5.5,0,0,0-.8.41l.89,85.1A.51.51,0,0,0,291.19,190.9Z"/><polygon class="cls-7" points="227.56 370.05 286 436.72 354.5 366.4 227.56 370.05"/><polygon class="cls-2" points="227.56 370.05 286 436.72 354.5 366.4 227.56 370.05"/><path class="cls-8" d="M302.11,25.31c-7.32-.75-12.47-6.63-11.72-13.95s7-12,14.3-11.28S317,6.69,316.29,14,309.39,26.05,302.11,25.31ZM304.3,3.94c-4.78-.49-8.29,2.77-8.82,7.94s2.25,9.08,7,9.57,8.17-2.78,8.7-8S309,4.42,304.3,3.94Z"/><path class="cls-8" d="M330.42,29.68a10.86,10.86,0,0,1-5.2-2.82l1.34-2.73A9.16,9.16,0,0,0,331,26.78c1.25.28,2,0,2.19-.83s-.42-1.27-1.92-1.89c-3.41-1.45-4.18-3.54-3.74-5.53.47-2.15,2.43-4,6.3-3.12a10.4,10.4,0,0,1,4.47,2.37l-1.26,2.59a8.76,8.76,0,0,0-3.76-2.1c-1.17-.25-1.77,0-1.91.69s.41,1.11,1.53,1.61c3.66,1.58,4.58,3.75,4.18,5.54C336.46,29,334.17,30.51,330.42,29.68Z"/><path class="cls-8" d="M356.73,21.52a6,6,0,0,1,4,3.72l.67-1.67,4,1.28-4.2,13-4-1.28.45-1.75a6,6,0,0,1-5.4.69c-3.46-1.12-5.26-4.81-3.9-9S353.27,20.4,356.73,21.52ZM354.6,32.81c1.64.53,3.68-.19,4.52-2.82s-.39-4.37-2-4.9-3.7.27-4.51,2.78S352.88,32.26,354.6,32.81Z"/><path class="cls-8" d="M381.17,46l-1.85-8.5L376.48,44l-4.1-1.81,9.68-22,4.1,1.81-6.53,14.82,7-3.28,4.39,1.94-7.5,3.33,2.26,9.26Z"/><path class="cls-8" d="M406.54,43a5.91,5.91,0,0,1,3.14,4.44l1-1.51,3.62,2-6.72,11.87L404,57.83l.78-1.62a6,6,0,0,1-5.42-.41c-3.17-1.8-4.18-5.77-2-9.6S403.38,41.23,406.54,43Zm-4.36,10.62c1.49.85,3.64.55,5-1.85s.5-4.36-1-5.21-3.68-.48-5,1.82S400.61,52.77,402.18,53.65Z"/><path class="cls-8" d="M448.74,92c-4.62-4.31-5.6-10.19-.06-16.13l8.8-9.45,3.63,3.38-8.69,9.33c-3.55,3.81-3.63,7.18-.76,9.85s6.23,2.36,9.77-1.45l8.7-9.34,3.48,3.25-8.81,9.45C459.27,96.83,453.37,96.31,448.74,92Z"/><path class="cls-8" d="M472.13,115.8l5.71-4.82c1.68-1.43,1.87-2.63.84-3.85a3.43,3.43,0,0,0-4.66-.36l-5.56,4.69L465.57,108,476,99.24l2.63,3.12L477,104.09a6.12,6.12,0,0,1,5.56,2c2.37,2.81,1.37,5.6-1.22,7.79l-6.27,5.3Z"/><path class="cls-8" d="M482.28,129l11.13-7.88,2.59,3.65-11.13,7.89Zm14.49-10.26,3.46-2.46,2.59,3.66-3.46,2.45Z"/><path class="cls-8" d="M495.42,149.28l-1.78-3,8.69-12.24,2.21,3.72-5.84,7.56,9.46-1.48,2.16,3.64Z"/><path class="cls-8" d="M514.41,171.5l-3.81-8c-1.84.88-3.17,2.66-1.71,5.73a7.5,7.5,0,0,0,3.33,3.29l-2.67,1.27a9.09,9.09,0,0,1-4.06-4.45,7.14,7.14,0,0,1,3.51-9.95,7,7,0,0,1,9.61,3.36c1.53,3.22.64,6.74-2.33,8.15A9,9,0,0,1,514.41,171.5Zm1.8-7.59c-.52-1.08-1.63-1.75-3.52-1.25l2.08,4.37a4.91,4.91,0,0,0,.52-.2A2,2,0,0,0,516.21,163.91Z"/><path class="cls-8" d="M521.16,187.13l-6.6,2.45-1.56-4.2,12.78-4.74,1.42,3.82-2.2,1.08a5.62,5.62,0,0,1,4.51,3.65l-4,1.51C525.29,188.16,523.33,186.33,521.16,187.13Z"/><path class="cls-8" d="M520.25,208.85a10.92,10.92,0,0,1,0-5.92l3-.1a9.21,9.21,0,0,0-.25,5.18c.34,1.23.91,1.78,1.76,1.54s.93-1,.77-2.58c-.33-3.69,1.16-5.35,3.12-5.9,2.12-.6,4.65.27,5.72,4.09a10.49,10.49,0,0,1,0,5.06l-2.88.1a8.62,8.62,0,0,0,.08-4.3c-.32-1.16-.85-1.55-1.5-1.37s-.79.89-.7,2.11c.32,4-1.16,5.81-2.93,6.3C523.69,213.86,521.29,212.54,520.25,208.85Z"/><path class="cls-8" d="M524.81,225.29l13.38-2.67.87,4.39-13.37,2.67Zm17.42-3.48,4.15-.83.88,4.39-4.16.83Z"/><path class="cls-8" d="M539.13,246.3l-10.68,1.35-.56-4.45,10.67-1.35-.32-2.58,2.85-.36.33,2.58,4.56-.58.56,4.45-4.56.57.33,2.62-2.85.37Z"/><path class="cls-8" d="M522.11,266l-.23-4.32,8.34,3.12,12.95-6.43.23,4.31-8.79,4,9.18,3.11.23,4.24Z"/><path class="cls-9" d="M551.53,318.76l-1.41,7.1-16.22,3.42,13.67,9.37-1.38,6.94-23.54-4.68,1.12-5.61,12.83,2.55c.55.11,2.33.59,2.48.66l-2.34-1.36L525,329.3l.75-3.77,13.88-2.74c.6-.13,2.4-.34,2.69-.37-.16,0-2-.23-2.54-.34l-12.83-2.55,1.08-5.46Z"/><path class="cls-9" d="M532,356.64l-1.79,5.56-13-4.17,1.79-5.56Zm8.34,2.68-1.79,5.56-4.8-1.54,1.79-5.56Z"/><path class="cls-9" d="M525.87,374.57l-2.21,5.23-2.09-.71a5.46,5.46,0,0,1,.64,5.48c-1.44,3.39-4.37,3.75-7.5,2.43l-7.55-3.19,2.27-5.38,6.38,2.69c1.69.72,2.58.36,3-.71a2.52,2.52,0,0,0-1.54-3.13L511,374.63l2.27-5.38Z"/><path class="cls-9" d="M508.46,396.76c3.85,2.13,4.67,6.84,2.5,10.76s-6.59,5.72-10.44,3.59-4.69-6.9-2.54-10.78S504.58,394.61,508.46,396.76Zm-5.15,9.31c1.75,1,3.18.62,3.87-.64s.24-2.66-1.51-3.63-3.21-.64-3.91.62S501.52,405.08,503.31,406.07Z"/><path class="cls-9" d="M508.46,430.71l-3.36,4.78-10.28-7.21a5.46,5.46,0,0,1-.53,5.49c-2.11,3-5.06,2.76-7.84.81l-6.72-4.71,3.36-4.78,5.66,4c1.51,1.06,2.46.89,3.12-.06a2.52,2.52,0,0,0-.85-3.38l-5.57-3.9,3.35-4.79Z"/><path class="cls-8" d="M446.92,465.17a12.84,12.84,0,0,1,8.31-3.52l1.76,3.59a10.87,10.87,0,0,0-7.65,2.59c-1.77,1.62-2.33,3.74-.9,5.31s2.88,1.5,6.42-.44c4.56-2.47,7.85-1.84,10.16.7,2.64,2.9,2.25,7.1-1.56,10.57a12.14,12.14,0,0,1-6.92,3.11L455,483.87a12.23,12.23,0,0,0,6-2.64c1.74-1.59,2.07-3.3.92-4.57-.95-1-2.29-1.27-5.26.35-5.08,2.73-8.44,2.61-11.24-.47C442,472.73,443.57,468.22,446.92,465.17Z"/><path class="cls-8" d="M426,491.13l7.14-5.29c-1.22-1.64-3.22-2.59-5.95-.57a7.42,7.42,0,0,0-2.58,3.91l-1.77-2.38a9.13,9.13,0,0,1,3.58-4.85,7.14,7.14,0,0,1,10.45,1.53,7,7,0,0,1-1.45,10.08c-2.86,2.12-6.49,1.92-8.44-.71A9.64,9.64,0,0,1,426,491.13Zm7.79.3c1-.72,1.41-1.94.55-3.7l-3.88,2.89a4.16,4.16,0,0,0,.3.47A2,2,0,0,0,433.79,491.43Z"/><path class="cls-8" d="M395.68,502.11l3.79,6.63c1,1.74,2,2.27,3.35,1.5a3.16,3.16,0,0,0,.95-4.37l-3.61-6.32,3.88-2.23,3.8,6.63c1,1.74,2,2.29,3.34,1.5a3.12,3.12,0,0,0,.92-4.35l-3.61-6.32,3.89-2.23,6.77,11.84-3.54,2-1.38-1.93a5.57,5.57,0,0,1-2.81,4.92c-2.29,1.32-4.06.95-5.5-.44a5.75,5.75,0,0,1-2.86,5.23c-3.2,1.83-5.51.21-7.2-2.75l-4.07-7.11Z"/><path class="cls-8" d="M372.3,512.44a5.93,5.93,0,0,1,5.44.24l-.59-1.71,3.84-1.61,9.27,22.15-4.13,1.73-4.59-11A6.06,6.06,0,0,1,378,526c-3.36,1.41-7.14-.26-8.8-4.25S368.94,513.84,372.3,512.44Zm5.73,10c1.59-.67,2.68-2.51,1.62-5.06s-3.17-3.1-4.75-2.43-2.64,2.62-1.6,5.09S376.37,523.09,378,522.4Z"/><path class="cls-8" d="M354.53,534.36a5.93,5.93,0,0,1-5.38-.81l.4,1.76-4,1.19-3.9-13.08,4-1.19.63,1.69a6,6,0,0,1,4.05-3.63c3.49-1,7.06,1,8.32,5.2S358,533.32,354.53,534.36Zm-4.64-10.51c-1.65.49-2.92,2.25-2.13,4.89s2.8,3.38,4.45,2.89,2.9-2.33,2.14-4.85S351.61,523.33,349.89,523.85Z"/><path class="cls-8" d="M289.27,531c6.91-.42,13.14,4,13.62,11.72s-5.19,12.86-12.1,13.28a14.48,14.48,0,0,1-8.49-1.93l-.27-4.43a11.61,11.61,0,0,0,8,2.47c4.75-.29,8.07-3.69,7.75-9.08s-4-8.37-8.79-8.09a11.68,11.68,0,0,0-7.65,3.44l-.27-4.44A14.49,14.49,0,0,1,289.27,531Z"/><path class="cls-8" d="M263.16,545.78a5.93,5.93,0,0,1-4.79-2.58l-.22,1.79-4.15-.22.72-13.62,4.16.22,0,1.81a5.94,5.94,0,0,1,5-2.06c3.63.19,6.31,3.3,6.08,7.69S266.79,546,263.16,545.78Zm-.83-11.46c-1.72-.09-3.51,1.13-3.66,3.89s1.51,4.13,3.22,4.22,3.51-1.22,3.65-3.85S264.12,534.41,262.33,534.32Z"/><path class="cls-8" d="M223.87,526.7l-1.33,7.52c-.35,2,.07,3,1.61,3.29a3.16,3.16,0,0,0,3.53-2.74L229,527.6l4.42.78L232,535.9c-.35,2,0,3,1.61,3.3a3.13,3.13,0,0,0,3.49-2.76l1.28-7.16,4.41.78-2.39,13.43-4-.71.17-2.37a5.58,5.58,0,0,1-5.31,2c-2.6-.46-3.73-1.88-3.94-3.87a5.76,5.76,0,0,1-5.55,2.19c-3.62-.65-4.36-3.38-3.76-6.73l1.43-8.07Z"/><path class="cls-8" d="M199.32,519.63a6,6,0,0,1,3.91,3.34l2.75-8.9,4.28,1.32-6.32,20.49-4-1.23.42-1.76a5.92,5.92,0,0,1-5.39.77c-3.48-1.07-5.32-4.74-4-8.95S195.85,518.56,199.32,519.63Zm-2,11.32c1.64.51,3.67-.25,4.49-2.88s-.45-4.37-2.1-4.88-3.7.32-4.48,2.85S195.62,530.42,197.34,531Z"/><path class="cls-8" d="M173,525.07l2.95-6.88c.87-2,.5-3.18-1-3.81a3.44,3.44,0,0,0-4.33,1.76l-2.87,6.69-4.11-1.77L169,508.52l3.75,1.61-.73,2.3a6.08,6.08,0,0,1,5.89-.64c3.39,1.45,3.74,4.39,2.39,7.51l-3.23,7.54Z"/><path class="cls-8" d="M154.39,500.45a10.81,10.81,0,0,1,4.2,4.16l-2.06,2.25a9.18,9.18,0,0,0-3.53-3.8c-1.12-.61-1.91-.59-2.33.18s0,1.35,1.31,2.36c2.86,2.35,3,4.57,2,6.36s-3.45,3.13-6.92,1.23a10.35,10.35,0,0,1-3.63-3.54l1.94-2.13a8.63,8.63,0,0,0,3,3.07c1,.57,1.7.47,2-.12s-.09-1.19-1-2c-3.08-2.55-3.35-4.89-2.46-6.5C148.4,499.4,151,498.6,154.39,500.45Z"/><path class="cls-10" d="M55.88,448.09,52,442.93l19.13-14.5L75,433.6Z"/><path class="cls-10" d="M52.43,425.7l-3-4.82,1.78-1.3A5.44,5.44,0,0,1,46.37,417c-1.95-3.13-.56-5.73,2.33-7.53l7-4.33,3.08,5-5.87,3.66c-1.56,1-1.78,1.91-1.17,2.89a2.53,2.53,0,0,0,3.45.54l5.77-3.59,3.09,5Z"/><path class="cls-10" d="M40.68,398l1.11,2.22-3.4,1.7-1.11-2.22-4.12,2.05-2.6-5.23,4.11-2.05-1.12-2.26,3.4-1.69,1.13,2.25,8.8-4.39,2.61,5.23Z"/><path class="cls-10" d="M35.2,379.63a7.17,7.17,0,0,1-9.43-4.33c-1.31-3.35-.45-7,2.87-8.26a10.34,10.34,0,0,1,2.21-.6l3,7.55c1.69-.83,2.16-2.39,1.29-4.58a8,8,0,0,0-2.79-3.51l3.28-1.28a9.88,9.88,0,0,1,3.76,5.1C41,374,39.23,378.06,35.2,379.63Zm-4.81-7.78a7,7,0,0,0-.76.26,1.45,1.45,0,0,0-.91,1.94c.28.71,1,1.28,2.84.78Z"/><path class="cls-10" d="M19.86,356.9l-1.54-5.3,2.37-.85a5.23,5.23,0,0,1-4.27-3.8l5.46-1.59c-.24,2.49,1.27,4.51,3.57,3.84l5.88-1.71L33,353.1Z"/><path class="cls-10" d="M14.15,335.58,13.09,330l2.13-.57a5.5,5.5,0,0,1-3.57-4.21c-.68-3.61,1.56-5.55,4.9-6.18l8.06-1.53,1.08,5.74-6.8,1.29c-1.81.34-2.35,1.14-2.13,2.28a2.53,2.53,0,0,0,3,1.74l6.68-1.26L27.55,333Z"/><path class="cls-10" d="M10.31,296.67l-1.7-.19-.42-5.26,13.6-1.09.42,5.27-1.65.45c1.71.87,2.44,3,2.57,4.53.29,3.67-2.45,6.53-6.8,6.88s-7.54-2.05-7.84-5.72C8.37,300,8.76,297.79,10.31,296.67Zm5.56,4.77c2-.16,2.9-1.4,2.79-2.79s-1.24-2.47-3.2-2.31-2.94,1.39-2.83,2.79S13.92,301.59,15.87,301.44Z"/><path class="cls-10" d="M11.74,276.92l0,2.48-3.8,0,0-2.48-4.6-.06L3.42,271,8,271l0-2.52,3.8.05,0,2.52,9.83.12-.07,5.85Z"/><path class="cls-10" d="M0,256l.51-5.82,5,.45L5,256.46Zm8.73.77L9.24,251l13.59,1.19L22.32,258Z"/><path class="cls-10" d="M17.29,240.12c-4.34-.76-6.65-5-5.87-9.36s4.38-7.56,8.71-6.8,6.68,5,5.91,9.37S21.66,240.89,17.29,240.12Zm1.84-10.48c-2-.35-3.21.45-3.45,1.87s.64,2.59,2.61,2.93,3.24-.44,3.49-1.86S21.14,230,19.13,229.64Z"/><path class="cls-10" d="M16.21,210.88l1.58-5.46,2.15.46a5.5,5.5,0,0,1-1.28-5.37c1-3.53,3.89-4.25,7.15-3.3l7.88,2.27-1.61,5.61-6.65-1.92c-1.77-.51-2.61,0-2.93,1.07a2.51,2.51,0,0,0,1.9,2.92l6.53,1.89-1.61,5.61Z"/><path class="cls-10" d="M30.36,174.43l-1.43-.93,2-4.88,12.61,5.18-2,4.88-1.68-.34c1.14,1.55.84,3.76.24,5.2-1.39,3.41-5.14,4.72-9.17,3.07s-5.8-5.24-4.4-8.64C27.13,176.52,28.47,174.74,30.36,174.43Zm2.8,6.77c1.81.75,3.22.07,3.75-1.22s0-2.77-1.8-3.51-3.26-.08-3.79,1.21S31.35,180.46,33.16,181.2Z"/><path class="cls-10" d="M27.44,152.1l2.77-5.33L51.5,157.84l-2.77,5.32Z"/><path class="cls-8" d="M61.2,106.56l4.51,3.64L71,103.6,74,106l-5.33,6.59,8.28,6.69L73.84,123,55.18,108,64.83,96l3,2.38Z"/><path class="cls-8" d="M93.16,91.28,87,97.65c1.47,1.42,3.6,2,6-.4A7.41,7.41,0,0,0,94.85,93L97,95a9.17,9.17,0,0,1-2.75,5.36,7.13,7.13,0,0,1-10.55.19,7,7,0,0,1-.21-10.18c2.48-2.56,6.1-3,8.45-.67A9.51,9.51,0,0,1,93.16,91.28Zm-7.74,1c-.84.87-1.07,2.14.06,3.74l3.37-3.47a3.84,3.84,0,0,0-.38-.42A2,2,0,0,0,85.42,92.24Z"/><path class="cls-8" d="M110.47,85.14a10.78,10.78,0,0,1-5.37,2.45l-1.39-2.71a9.17,9.17,0,0,0,4.8-2c1-.84,1.23-1.58.66-2.25s-1.28-.44-2.67.39c-3.21,1.86-5.34,1.22-6.67-.33s-1.71-4.33,1.29-6.91a10.38,10.38,0,0,1,4.58-2.15L107,74.24A8.68,8.68,0,0,0,103.08,76c-.91.78-1,1.43-.6,1.94s1.14.34,2.2-.26c3.47-2,5.75-1.41,6.95,0C113.56,79.89,113.38,82.63,110.47,85.14Z"/><path class="cls-8" d="M121.84,61.86l6.33,8.7-3.62,2.64-6.33-8.7L116.12,66l-1.7-2.33,2.1-1.53-2.71-3.72,3.63-2.63,2.7,3.71L122.28,58,124,60.31Z"/><path class="cls-8" d="M130.13,47.83l-2.25-3.6,3.8-2.37,2.25,3.6Zm9.4,15.07-7.22-11.58,3.8-2.37,7.22,11.57Z"/><path class="cls-8" d="M160.58,51l-3.09,1.6-11.71-9.38,3.84-2,7.21,6.26-.93-9.52L159.67,36Z"/><path class="cls-8" d="M175.16,28.69a5.88,5.88,0,0,1,5.42.34L180,27.31l3.87-1.54,5,12.68L185.06,40l-.77-1.62a6,6,0,0,1-3.72,4c-3.38,1.34-7.11-.36-8.74-4.45S171.77,30,175.16,28.69Zm5.54,10.06c1.6-.64,2.71-2.5,1.69-5.06s-3.09-3.12-4.69-2.49-2.68,2.57-1.7,5S179,39.41,180.7,38.75Z"/><path class="cls-8" d="M200.48,34.66l-6.9-23,4.29-1.29,6.91,23Z"/><path class="cls-11" d="M85.08,427.08a242.32,242.32,0,0,1-52.48-151C32.6,164.83,107.28,71,209.26,42"/><path class="cls-11" d="M287,33C416.3,38.76,519.34,145.4,519.34,276.11c0,134.4-109,243.36-243.37,243.36A242.23,242.23,0,0,1,154.5,487"/><path class="cls-12" d="M88.7,424.23A237.76,237.76,0,0,1,37.21,276.11c0-109.17,73.27-201.23,173.32-229.68"/><path class="cls-12" d="M286.81,37.59c126.83,5.67,227.91,110.29,227.91,238.52C514.72,408,407.83,514.86,276,514.86A237.66,237.66,0,0,1,156.8,483"/></g></g></svg>